# xmcd
#
# Track frame offsets: 
#        150
#        15967
#        28802
#        44072
#        64533
#        81309
#        90300
#        107662
#        131637
#        142512
#        155724
#        174009
#        187296
#        197840
#        216005
#
# Disc length: 3117 seconds
#
# Revision: 0
# Processed by: cddbd v1.5.2PL0 Copyright (c) Steve Scherf et al.
# Submitted via: ExactAudioCopy v0.95a5
#
DISCID=c50c2b0f
DTITLE=Fleetwood Mac - The Original Fleetwood Mac
DYEAR=1971
DGENRE=Blues
TTITLE0=Drifting
TTITLE1=Leaving Town Blues
TTITLE2=Watch Out
TTITLE3=A Fool No More
TTITLE4=Mean Old Fireman
TTITLE5=Can't Afford To Do It
TTITLE6=Fleetwood Mac
TTITLE7=Worried Dream
TTITLE8=Love That Woman
TTITLE9=Allow Me One More Show
TTITLE10=First Train Home
TTITLE11=Rambling Pony No 2
TTITLE12=Mighty Cold (Bonus Track)
TTITLE13=Jumping At Shadows - Live Record
TTITLE14=Man Of Action (Bonus Track)
EXTD=
EXTT0=
EXTT1=
EXTT2=
EXTT3=
EXTT4=
EXTT5=
EXTT6=
EXTT7=
EXTT8=
EXTT9=
EXTT10=
EXTT11=
EXTT12=
EXTT13=
EXTT14=
PLAYORDER=
